<?xml version="1.0" encoding="UTF-8"?>
<svg id="Layer_2" data-name="Layer 2" xmlns="http://www.w3.org/2000/svg" viewBox="0 0 339.66 128.15">
  <defs>
    <style>
      .cls-1 {
        font-family: NimbusRomD-Reg, 'Nimbus Roman D';
        font-size: 37.61px;
      }

      .cls-1, .cls-2 {
        fill: #c4c4c4;
      }

      .cls-3 {
        letter-spacing: -.02em;
      }

      .cls-4 {
        letter-spacing: -.02em;
      }

      .cls-5 {
        letter-spacing: -.01em;
      }

      .cls-6 {
        letter-spacing: -.01em;
      }

      .cls-7 {
        letter-spacing: 0em;
      }
    </style>
  </defs>
  <g id="Layer_1-2" data-name="Layer 1">
    <path class="cls-2" d="M88.47,90.4c13.78,0,19.85-10.06,25.11-18.95,4.35-7.44,8.07-11.88,14.23-11.88,7.8,0,9.43,3.27,20.58,3.27,27.74,0,30.91-29.02,42.97-29.02,2.27,0,3.63,1.27,3.63,3.45,0,10.61-13.42,17.95-13.42,30.83,0,9.16,6.44,12.06,15.05,12.06,37.17,0,63.46-48.79,87.84-48.79,6.52,0,9.79,4.26,9.79,7.8,0,11.51-9.7,10.7-30.55,20.49-10.7,4.99-11.69,8.43-11.69,13.15s4.8,7.62,11.88,7.62c29.91,0,62.37-7.71,62.37-27.93,0-18.5-25.38-23.03-25.38-31.19,0-3.63,2.45-5.99,5.98-5.99,8.61,0,12.15,11.7,23.66,11.7,5.26,0,9.16-3.81,9.16-9.43,0-13.6-19.49-17.59-35.81-17.59-14.59,0-28.55,7.07-39.43,17.41-25.47,24.21-31.27,32.37-42.6,32.37-3.99,0-6.35-2.09-6.35-5.71,0-14.06,26.74-22.31,26.74-35.28,0-4.9-4.26-8.79-9.61-8.79-13.05,0-16.5,13.97-28.92,13.97-15.14,0-19.94-13.78-42.24-13.78-17.04,0-24.11,13.78-35.08,13.78C113.13,13.97,107.42.18,84.57.18,39.07.18,0,32.1,0,60.39c0,12.24,9.34,19.95,20.76,19.95,47.41,0,71.43-55.95,88.56-55.95,3.9,0,5.08,2.9,5.08,5.17,0,10.61-10.43,22.31-29.91,40.89-4.08,3.9-6.35,7.62-6.35,12.15s3.9,7.8,10.33,7.8"/>
    <text class="cls-1" transform="translate(121.58 118.3)"><tspan class="cls-5" x="0" y="0">E</tspan><tspan class="cls-7" x="22.76" y="0">l</tspan><tspan class="cls-3" x="32.01" y="0">e</tspan><tspan class="cls-4" x="47.51" y="0">va</tspan><tspan class="cls-6" x="79.36" y="0">t</tspan><tspan x="90.05" y="0">e</tspan></text>
  </g>
</svg>