<?xml version="1.0" encoding="UTF-8"?>
<svg id="Layer_2" data-name="Layer 2" xmlns="http://www.w3.org/2000/svg" viewBox="0 0 1574.8 881.32">
  <defs>
    <style>
      .cls-1 {
        fill: #c9ced0;
      }
    </style>
  </defs>
  <g id="Layer_1-2" data-name="Layer 1">
    <g>
      <g>
        <path class="cls-1" d="M339.4,235.87c9.02,0,15.14-2.58,18.68-7.41,3.55-4.84,5.16-13.21,5.16-25.46V34.8c0-9.99-1.93-16.76-5.48-20.3-3.86-3.54-10.96-5.15-21.59-5.15h-5.8v-4.84h84.42c16.43,0,30.29,1.61,42.21,5.16,11.92,3.54,21.59,8.05,29.32,13.85,7.74,5.8,13.53,12.24,17.07,19.66,3.55,7.41,5.48,15.14,5.48,23.2,0,6.77-.64,12.89-2.25,18.05-1.61,5.47-3.87,9.99-7.09,14.18-3.22,4.19-7.41,8.06-12.24,11.28-5.16,3.55-11.28,6.77-18.37,9.99,17.08,4.84,29.97,11.92,38.02,21.27,8.06,9.35,12.24,21.59,12.24,36.09,0,19.66-7.41,35.12-21.91,46.4-14.5,11.28-36.09,17.08-64.12,17.08h-102.15v-4.83h8.38ZM460.23,102.15c9.35-8.06,13.86-20.62,13.86-37.7,0-32.22-19.66-48.34-58.65-48.34h-13.53c-2.9,0-4.51,1.93-4.51,5.48v92.8h19.33c19.66,0,34.15-4.19,43.5-12.24ZM466.35,216.22c9.99-9.35,15.14-22.56,15.14-39.96,0-34.48-20.94-51.56-63.16-51.56h-20.94v100.53c0,3.55,2.25,5.16,6.45,5.16h19.01c19.01,0,33.51-4.83,43.5-14.18Z"/>
        <path class="cls-1" d="M634.82,229.42c-9.99,9.02-22.24,13.53-36.74,13.53-9.35,0-18.05-1.93-25.78-6.12-8.05-3.87-14.82-9.35-20.3-16.44-5.47-7.09-9.99-15.46-12.89-25.45-3.22-9.99-4.83-20.94-4.83-32.87s1.61-23.52,5.15-34.15c3.55-10.63,8.38-19.66,14.5-27.39,6.12-7.73,13.21-13.85,21.59-18.36,8.38-4.19,17.4-6.45,27.06-6.45,7.74,0,14.83,1.29,21.27,3.86,6.45,2.9,11.93,6.77,16.76,11.61,4.51,5.15,8.06,11.28,10.63,18.04,2.25,6.77,3.54,14.5,3.54,22.88v5.8h-97.95v3.86c-.32,2.26-.32,3.87-.32,5.48,0,9.99,1.29,19.33,3.86,28.04,2.58,8.69,6.12,16.43,10.63,22.88,4.19,6.44,9.67,11.6,15.79,15.14,6.12,3.55,12.57,5.48,19.66,5.48,5.8,0,10.96-.64,15.79-2.25,4.51-1.61,8.7-3.87,12.57-6.77,3.86-2.9,7.41-6.12,10.96-10.31,3.22-4.19,6.44-8.7,9.67-13.85l3.86,1.29c-6.45,19.33-14.5,33.51-24.49,42.53ZM623.54,124.7c0-11.92-2.58-21.27-7.73-28.04-5.16-6.45-12.57-9.67-21.91-9.67-9.99,0-18.05,3.54-24.17,10.96-6.12,7.41-10.31,18.05-11.92,31.9h65.73v-5.15Z"/>
        <path class="cls-1" d="M657.01,82.17v-3.55h64.77v3.55c-2.9,0-5.8.32-8.38.64-2.9.32-5.16,1.29-6.77,2.25-1.93.97-3.22,2.58-3.86,4.19-.64,1.94-.32,4.51.64,7.41l39.64,105.69,38.66-104.72c.97-2.9,1.29-5.47.97-7.41-.64-1.61-1.62-3.22-3.23-4.19-1.61-.97-3.22-1.93-5.47-2.58-2.26-.32-4.51-.97-6.77-1.29v-3.55h40.92v3.55c-3.54,0-6.45.97-8.06,2.58-1.61,1.93-3.22,4.83-4.83,8.38l-72.82,190.11c-4.19,10.63-9.99,18.69-17.72,24.82-7.74,6.12-16.44,9.02-25.78,9.02-6.77,0-11.93-1.29-15.79-4.19-4.19-2.9-6.12-7.09-6.12-11.92,0-4.19,1.29-7.41,4.19-9.67,2.58-2.25,6.12-3.54,10.31-3.54,5.47,0,10.31.97,14.82,2.58,4.51,1.61,8.7,2.58,12.24,2.25,4.84-.32,8.38-2.25,10.96-6.45,2.26-4.19,4.84-9.02,7.41-14.5.97-2.25,2.25-4.83,3.87-8.38,1.29-3.54,2.58-7.41,3.86-10.96,1.61-4.19,3.22-8.38,4.83-13.21l-55.42-144.68c-2.58-6.77-8.38-10.63-17.08-12.24Z"/>
        <path class="cls-1" d="M952.45,193.01c-3.54,10.31-8.69,19.01-15.46,26.43-6.78,7.41-14.83,12.89-24.18,17.08-9.66,4.19-20.29,6.12-32.22,6.12s-22.55-1.93-31.9-6.12c-9.67-4.19-17.72-9.67-24.49-17.08-6.77-7.41-11.92-16.11-15.47-26.43-3.54-9.99-5.47-21.27-5.47-33.83s1.93-23.84,5.47-34.15c3.55-9.99,8.7-18.69,15.47-26.1,6.77-7.41,14.82-12.89,24.49-17.07,9.35-4.19,19.97-6.12,31.9-6.12s22.55,1.93,32.22,6.12c9.35,4.19,17.4,9.67,24.18,17.07,6.76,7.41,11.92,16.11,15.46,26.1,3.55,10.31,5.49,21.59,5.49,34.15s-1.93,23.84-5.49,33.83ZM916.05,107.94c-8.39-14.18-20.94-21.27-37.38-21.27-14.5,0-25.78,5.8-33.83,17.4-8.06,11.6-11.92,27.71-11.92,48.65,0,12.25,1.29,23.21,3.54,32.87,2.25,9.99,5.48,18.36,9.67,25.13s9.35,12.24,15.47,15.79c6.11,3.54,13.21,5.47,20.94,5.47,14.5,0,25.78-5.8,33.84-17.4,8.05-11.6,11.92-27.71,11.92-48.65,0-24.17-4.19-43.5-12.24-58Z"/>
        <path class="cls-1" d="M967.88,236.84c13.85,0,20.62-5.8,20.62-17.72v-105.37c0-10.63-4.51-15.79-13.22-15.79-.32,0-1.29,0-2.25.32s-2.25.64-3.22.97l-3.86.97-.64-3.86,12.56-5.48,15.79-6.76c5.15-2.25,9.66-4.19,13.86-5.8,3.86-1.61,5.8-2.58,6.12-2.58,1.61,0,2.58,1.61,2.58,4.51l-.97,27.39c3.86-3.54,8.05-7.09,12.24-10.96,4.2-3.54,8.39-7.09,12.89-10.31,4.51-2.9,9.34-5.48,14.18-7.74,4.83-1.93,10.31-2.9,15.78-2.9,24.5,0,36.74,15.79,36.74,47.37v95.7c0,11.92,6.45,18.05,19.33,18.05h1.61v3.86h-70.88v-3.86h2.9c13.54,0,20.3-7.09,20.3-21.27v-95.06c0-17.07-8.37-25.78-24.81-25.78-7.42,0-14.18,2.25-20.3,6.44-6.45,4.51-13.22,9.67-19.98,15.79v102.15c0,11.92,6.44,17.72,19.01,17.72h2.58v3.86h-71.53v-3.86h2.58Z"/>
        <path class="cls-1" d="M1281.36,229.42c-4.84,1.61-10,3.54-15.15,5.47-5.15,2.26-10,3.87-14.18,5.48-4.19,1.93-7.08,2.58-8.05,2.58-1.61,0-2.25-1.93-1.93-5.8.32-3.87.64-9.35.97-16.11-7.42,6.77-15.79,12.24-24.49,16.11-9.03,3.86-17.4,5.8-25.14,5.8-9.02,0-17.39-1.93-24.81-5.8-7.41-3.87-13.85-9.35-19.01-16.44-5.47-6.77-9.66-15.14-12.56-25.13-2.9-9.67-4.52-20.3-4.52-32.23s1.94-23.84,5.81-34.48c3.86-10.63,9.02-19.98,15.79-28.04,6.76-7.73,14.49-13.85,23.52-18.36,9.02-4.51,18.69-6.77,29.32-6.77,6.76,0,12.89.97,18.37,2.9,5.47,2.25,11.61,5.48,17.72,9.67v-47.04c0-6.12-.97-10.96-2.9-13.86-2.25-2.9-5.81-4.19-10.64-4.19-.32,0-.97,0-1.93.32l-2.58.64c-.97.32-1.93.32-2.9.64l-1.61-3.86c4.19-1.61,8.69-3.55,13.85-5.8,5.16-2.25,10-4.83,14.83-7.09,4.51-2.25,8.39-4.19,11.93-5.8,3.22-1.61,5.15-2.25,5.47-2.25,1.61,0,2.58,3.54,2.58,10.96v200.42c0,3.55,1.29,6.45,3.54,8.7s5.49,3.54,9.03,3.54c.97,0,2.58-.32,4.51-.64,1.93-.32,3.86-.64,5.8-.97v4.19c-2.25.32-5.8,1.61-10.63,3.22ZM1239.47,103.11c-1.93-3.55-4.52-6.77-7.74-9.67-3.22-2.9-7.08-5.16-11.27-6.77-4.51-1.61-9.35-2.25-14.5-2.25-14.83,0-26.42,5.8-34.8,17.72-8.69,11.92-12.88,28.03-12.88,48.65,0,10.96,1.29,20.94,3.54,29.97,2.25,9.02,5.8,16.76,9.98,22.88,4.2,6.45,9.35,11.28,15.47,14.83,5.8,3.54,12.25,5.47,19.66,5.47,10.96,0,19.66-2.25,25.78-7.08,6.13-4.51,9.35-10.63,9.35-18.37v-82.81c0-4.51-.97-8.7-2.58-12.57Z"/>
      </g>
      <path class="cls-1" d="M410.2,881.32c63.88,0,92.04-46.67,116.42-87.87,20.17-34.47,37.4-55.07,65.98-55.07,36.14,0,43.71,15.13,95.4,15.13,128.61,0,143.32-134.53,199.21-134.53,10.51,0,16.81,5.89,16.81,15.98,0,49.19-62.2,83.24-62.2,142.94,0,42.46,29.84,55.91,69.77,55.91,172.32,0,294.2-226.18,407.25-226.18,30.26,0,45.4,19.76,45.4,36.16,0,53.39-44.98,49.61-141.64,95.01-49.6,23.12-54.22,39.1-54.22,60.96s22.27,35.31,55.06,35.31c138.69,0,289.15-35.73,289.15-129.49,0-85.76-117.69-106.78-117.69-144.62,0-16.82,11.35-27.75,27.75-27.75,39.93,0,56.31,54.23,109.69,54.23,24.38,0,42.45-17.66,42.45-43.72,0-63.06-90.36-81.56-166.01-81.56-67.67,0-132.39,32.79-182.83,80.72-118.1,112.25-144.99,150.09-197.53,150.09-18.49,0-29.42-9.67-29.42-26.49,0-65.16,123.98-103.42,123.98-163.54,0-22.7-19.75-40.78-44.55-40.78-60.52,0-76.49,64.74-134.07,64.74-70.19,0-92.46-63.9-195.85-63.9-79.01,0-111.8,63.9-162.65,63.9-61.36,0-87.84-63.9-193.75-63.9C181.14,463.01,0,611,0,742.17c0,56.76,43.29,92.49,96.25,92.49,219.81,0,331.18-259.39,410.62-259.39,18.07,0,23.54,13.45,23.54,23.96,0,49.19-48.33,103.42-138.69,189.61-18.91,18.08-29.42,35.32-29.42,56.33s18.07,36.16,47.91,36.16Z"/>
    </g>
  </g>
</svg>